<svg width="204" height="49" viewBox="0 0 204 49" fill="none" xmlns="http://www.w3.org/2000/svg">
<path d="M21.808 37.832C17.6693 37.832 14 37.0427 10.8 35.464C7.64267 33.8427 5.14667 31.624 3.312 28.808C1.52 25.9493 0.624 22.664 0.624 18.952C0.624 15.1973 1.47733 11.912 3.184 9.096C4.89067 6.28 7.25867 4.08266 10.288 2.504C13.3173 0.925331 16.7947 0.135998 20.72 0.135998C24.6027 0.135998 27.9947 0.989332 30.896 2.696C33.7973 4.40267 36.0373 6.81333 37.616 9.928C39.2373 13 40.048 16.584 40.048 20.68H5.104V16.008H37.552L34.096 18.12C33.968 15.432 33.328 13.1067 32.176 11.144C31.024 9.18133 29.4667 7.66667 27.504 6.6C25.5413 5.53333 23.2587 5 20.656 5C17.84 5 15.3867 5.576 13.296 6.728C11.2053 7.83733 9.56267 9.416 8.368 11.464C7.216 13.512 6.64 15.9227 6.64 18.696C6.64 21.5973 7.30133 24.1147 8.624 26.248C9.94667 28.3813 11.8027 30.024 14.192 31.176C16.5813 32.328 19.3973 32.904 22.64 32.904C25.584 32.904 28.464 32.4133 31.28 31.432C34.1387 30.4507 36.6987 29.1067 38.96 27.4V32.008C36.7413 33.8 34.096 35.2293 31.024 36.296C27.952 37.32 24.88 37.832 21.808 37.832ZM41.8585 0.967999H47.7465L49.7945 13.192V37H43.9065V12.36L41.8585 0.967999ZM64.7065 0.135998C68.0772 0.135998 70.9358 0.818665 73.2825 2.184C75.6292 3.50667 77.4212 5.448 78.6585 8.008C79.8958 10.5253 80.5145 13.576 80.5145 17.16V37H74.6265V18.184C74.6265 13.8747 73.6238 10.632 71.6185 8.456C69.6558 6.23733 66.7758 5.128 62.9785 5.128C60.3332 5.128 58.0078 5.72533 56.0025 6.92C54.0398 8.11466 52.5038 9.77866 51.3945 11.912C50.3278 14.0027 49.7945 16.456 49.7945 19.272L47.4265 17.608C47.7252 14.024 48.6425 10.9307 50.1785 8.328C51.7145 5.72533 53.7198 3.72 56.1945 2.312C58.7118 0.861331 61.5492 0.135998 64.7065 0.135998ZM102.491 34.248H100.187L116.123 0.967999H122.395L104.475 37H97.947L79.963 0.967999H86.491L102.491 34.248ZM141.48 37.832C137.256 37.832 133.523 37.0427 130.28 35.464C127.08 33.8853 124.584 31.6667 122.792 28.808C121 25.9493 120.104 22.664 120.104 18.952C120.104 15.1973 121 11.912 122.792 9.096C124.584 6.28 127.08 4.08266 130.28 2.504C133.523 0.925331 137.256 0.135998 141.48 0.135998C145.747 0.135998 149.48 0.925331 152.68 2.504C155.88 4.08266 158.376 6.28 160.168 9.096C162.003 11.912 162.92 15.1973 162.92 18.952C162.92 22.664 162.003 25.9493 160.168 28.808C158.376 31.6667 155.88 33.8853 152.68 35.464C149.48 37.0427 145.747 37.832 141.48 37.832ZM141.48 32.904C144.637 32.904 147.368 32.3493 149.672 31.24C151.976 30.088 153.747 28.4667 154.984 26.376C156.264 24.2853 156.904 21.8107 156.904 18.952C156.904 16.136 156.264 13.6827 154.984 11.592C153.747 9.50133 151.976 7.88 149.672 6.728C147.368 5.576 144.637 5 141.48 5C138.365 5 135.635 5.576 133.288 6.728C130.984 7.88 129.213 9.50133 127.976 11.592C126.739 13.6827 126.12 16.136 126.12 18.952C126.12 21.8107 126.739 24.2853 127.976 26.376C129.213 28.4667 130.984 30.088 133.288 31.24C135.635 32.3493 138.365 32.904 141.48 32.904ZM171.795 48.392C169.961 48.392 168.318 48.1573 166.867 47.688C165.417 47.2187 163.987 46.536 162.579 45.64V40.968C163.987 41.864 165.353 42.5253 166.675 42.952C167.998 43.3787 169.513 43.592 171.219 43.592C173.054 43.592 174.633 43.1653 175.955 42.312C177.278 41.5013 178.388 40.1573 179.284 38.28L197.268 0.967999H203.54L183.828 40.456C182.932 42.2907 181.865 43.784 180.628 44.936C179.433 46.1307 178.089 47.0053 176.596 47.56C175.145 48.1147 173.545 48.392 171.795 48.392ZM177.812 35.848L160.723 0.967999H167.187L183.764 35.848H177.812Z" fill="#1E1E1E"/>
</svg>
