<svg width="63" height="21" viewBox="0 0 63 21" fill="none" xmlns="http://www.w3.org/2000/svg">
<rect x="0.25" y="0.716309" width="62.4734" height="20.0333" rx="10.0167" stroke="#1E1E1E" stroke-width="0.5"/>
<path d="M52.6772 10.8386C52.7748 10.741 52.7748 10.5827 52.6772 10.4851L51.0862 8.8941C50.9885 8.79647 50.8302 8.79647 50.7326 8.8941C50.635 8.99173 50.635 9.15002 50.7326 9.24765L52.1468 10.6619L50.7326 12.0761C50.635 12.1737 50.635 12.332 50.7326 12.4296C50.8302 12.5273 50.9885 12.5273 51.0862 12.4296L52.6772 10.8386ZM10.3408 10.6619L10.3408 10.9119L52.5004 10.9119L52.5004 10.6619L52.5004 10.4119L10.3408 10.4119L10.3408 10.6619Z" fill="#1E1E1E"/>
</svg>
